<?xml version="1.0" standalone="no"?>
<!DOCTYPE svg PUBLIC "-//W3C//DTD SVG 20010904//EN"
 "http://www.w3.org/TR/2001/REC-SVG-20010904/DTD/svg10.dtd">
<svg version="1.0" xmlns="http://www.w3.org/2000/svg"
 width="720.000000pt" height="480.000000pt" viewBox="0 0 720.000000 480.000000"
 preserveAspectRatio="xMidYMid meet">
<metadata>
Created by potrace 1.15, written by Peter Selinger 2001-2017
</metadata>
<g transform="translate(0.000000,480.000000) scale(0.100000,-0.100000)"
fill="#000000" stroke="none">
<path d="M0 4015 c0 -432 2 -785 5 -785 12 0 331 164 445 229 69 39 150 79
180 88 76 22 178 13 329 -31 112 -32 154 -38 126 -18 -14 10 -18 59 -6 66 6 4
32 8 58 11 26 2 68 7 93 11 63 11 410 6 440 -6 37 -15 164 -29 168 -19 2 5 25
9 50 9 31 0 57 7 77 21 17 11 40 24 53 29 12 5 22 16 22 24 0 7 13 19 30 26
16 7 32 21 35 31 4 10 17 27 31 38 14 11 24 29 24 44 0 13 7 30 15 37 8 7 13
16 10 20 -3 5 0 21 6 37 6 15 17 66 24 113 14 95 25 126 52 155 10 11 26 33
36 48 10 15 28 32 40 37 16 6 17 9 5 9 -11 1 -15 7 -11 22 3 11 11 18 19 15 7
-3 18 2 24 9 7 8 15 14 18 13 18 -2 32 3 32 12 0 6 -8 10 -17 11 -19 0 -21 -1
90 47 32 14 57 31 57 39 0 9 6 13 15 9 8 -3 15 -1 15 4 0 5 6 7 14 4 29 -11
96 17 132 56 20 21 41 37 48 34 6 -2 22 5 34 16 22 21 29 65 23 147 -1 18 5
46 14 62 8 17 15 37 15 46 0 13 -146 15 -1435 15 l-1435 0 0 -785z"/>
<path d="M5215 3465 c-65 -31 -122 -60 -126 -66 -3 -6 -21 -16 -40 -22 -128
-45 -383 -234 -410 -304 -14 -39 -45 -27 -114 42 -36 35 -65 68 -65 72 0 5 23
30 50 56 28 27 55 57 61 68 25 48 -33 -5 -137 -123 -59 -68 -121 -139 -138
-158 -18 -19 -155 -176 -305 -347 -150 -172 -274 -313 -276 -313 -2 0 -1 9 2
19 4 18 2 19 -34 9 -44 -11 -123 -25 -205 -34 -41 -5 -58 -3 -58 5 0 6 5 11
10 11 6 0 10 4 10 9 0 6 -27 15 -60 22 -33 6 -60 15 -60 19 0 11 -52 23 -59
13 -9 -13 -120 -30 -182 -28 -41 2 -77 12 -132 38 -87 42 -128 60 -142 61 -5
1 -14 11 -20 24 -5 12 -15 22 -22 22 -7 0 -27 9 -45 20 -19 12 -51 20 -75 20
-31 0 -46 5 -57 21 -8 12 -19 18 -24 15 -5 -3 -15 1 -22 9 -14 17 -95 55 -116
55 -7 0 -17 7 -22 16 -7 12 -39 17 -145 25 -79 6 -147 15 -163 24 -15 7 -39
11 -54 9 -20 -5 -40 5 -89 43 -34 26 -70 53 -79 58 -10 6 -19 13 -22 16 -13
15 -102 49 -163 63 -80 19 -267 22 -267 5 0 -7 -10 -9 -27 -4 -16 4 -45 8 -65
10 -21 2 -42 6 -48 10 -5 3 -10 1 -10 -4 0 -6 -9 -11 -20 -11 -28 0 -25 -17
10 -50 36 -33 90 -56 90 -37 0 8 3 8 8 2 8 -13 80 -35 111 -35 33 0 47 -40 28
-79 -21 -42 -14 -70 28 -108 33 -31 39 -33 112 -33 43 -1 137 -5 208 -10 313
-22 363 -29 558 -81 297 -79 455 -128 537 -164 114 -50 241 -79 461 -105 116
-13 174 -3 239 42 l45 31 -26 -29 c-14 -16 -63 -71 -108 -122 -46 -52 -80 -96
-77 -99 3 -3 12 0 21 7 12 10 15 10 15 -2 0 -10 22 -21 62 -32 63 -17 63 -17
81 5 22 28 14 38 -13 14 -20 -18 -20 -17 -20 8 0 14 10 43 22 63 l22 37 -25
-16 c-24 -16 -25 -16 -24 7 2 28 60 119 129 201 28 33 176 204 330 380 358
411 376 430 376 392 0 -7 25 -37 55 -67 30 -30 55 -59 55 -65 0 -6 -30 -44
-66 -85 -37 -41 -78 -91 -93 -110 -14 -19 -29 -37 -34 -38 -4 -2 -12 -13 -18
-24 -9 -16 -8 -18 4 -11 20 12 217 231 217 242 0 9 77 45 123 56 17 5 27 3 27
-4 0 -6 14 -10 32 -9 28 3 34 -1 36 -19 2 -13 8 -23 14 -23 6 0 16 -7 22 -16
9 -12 17 -13 37 -5 24 8 240 234 417 434 63 72 88 117 65 117 -5 0 -62 -25
-128 -55z"/>
<path d="M4379 2727 c-9 -7 -35 -27 -57 -46 -22 -18 -42 -31 -44 -29 -2 2 -22
-15 -43 -38 -94 -97 -129 -138 -112 -131 9 3 17 5 17 3 0 -2 -18 -39 -39 -82
-44 -89 -81 -246 -81 -345 0 -69 -21 -124 -66 -173 -26 -28 -27 -29 -9 -42 25
-18 50 -18 66 2 28 34 98 73 194 108 55 20 118 44 140 53 68 28 197 118 250
175 76 80 90 124 59 183 -18 34 -54 193 -54 237 0 39 -15 66 -58 106 -31 28
-42 32 -91 32 -31 0 -63 -6 -72 -13z"/>
<path d="M390 2491 c0 -22 34 -66 98 -128 35 -35 70 -63 77 -63 23 0 37 -27
26 -49 -15 -27 -5 -47 29 -61 23 -10 33 -25 50 -74 36 -108 55 -128 247 -269
297 -219 364 -279 417 -382 34 -64 7 -156 -64 -223 -25 -23 -55 -18 -118 19
-48 29 -132 119 -132 141 0 10 -4 18 -8 18 -5 0 -14 11 -20 24 -10 23 -118 90
-157 98 -11 2 -26 16 -33 31 -7 15 -17 27 -23 27 -5 0 -9 8 -9 19 0 10 -12 27
-27 37 -15 9 -42 32 -59 51 -17 18 -38 33 -46 33 -8 0 -31 18 -51 40 -22 25
-44 40 -59 40 -13 0 -33 10 -45 23 -183 194 -185 195 -318 184 -82 -7 -122
-20 -147 -47 -16 -17 -17 -86 -18 -999 l0 -981 1120 0 c777 0 1120 3 1120 11
0 5 -9 27 -20 47 -11 20 -31 62 -45 92 -32 73 -59 102 -122 130 -33 14 -53 30
-53 40 0 9 -5 21 -10 26 -14 14 -40 156 -32 170 4 6 20 28 36 48 47 58 66 45
66 -43 0 -58 15 -68 121 -77 l70 -7 71 -76 c39 -42 96 -107 127 -146 31 -38
64 -79 74 -89 9 -11 17 -25 17 -32 0 -6 9 -23 20 -37 11 -14 20 -32 20 -41 0
-14 33 -16 313 -15 232 0 306 3 290 11 -13 6 -23 14 -23 18 0 4 -24 22 -52 40
-29 18 -78 49 -108 69 -30 20 -108 89 -173 153 -65 65 -124 121 -131 125 -13
7 -128 113 -242 220 -25 24 -49 43 -54 43 -5 0 -23 25 -40 55 -28 48 -30 58
-21 90 14 53 7 66 -31 53 -27 -9 -33 -7 -63 22 -31 30 -35 31 -71 21 -66 -18
-74 -16 -74 27 0 25 10 54 29 83 34 52 60 77 123 112 41 24 49 35 73 96 22 55
27 81 23 121 -6 58 -12 68 -36 54 -11 -7 -85 -8 -217 -4 -189 7 -201 6 -214
-12 -13 -17 -17 -14 -62 48 -27 37 -49 70 -49 75 0 4 -17 8 -37 8 -50 0 -170
26 -191 42 -20 15 -112 109 -106 109 9 0 -69 94 -79 96 -7 1 -32 13 -57 28
-25 15 -64 35 -87 46 -24 11 -43 26 -43 35 0 8 -5 15 -10 15 -6 0 -18 18 -27
39 -11 25 -26 42 -39 45 -13 3 -43 22 -68 41 -26 19 -50 35 -55 35 -4 0 -28
17 -52 39 -24 21 -62 44 -84 52 -39 13 -94 46 -106 62 -3 4 -21 18 -39 31 -31
21 -34 27 -32 67 l3 44 -69 46 c-39 26 -79 50 -91 54 -12 3 -21 10 -21 14 0 5
-12 11 -27 14 -16 3 -36 9 -45 12 -11 4 -18 3 -18 -4z m1534 -1386 c19 -28 21
-106 4 -123 -7 -7 -38 -12 -70 -12 l-58 0 0 38 c0 30 8 48 36 80 41 48 65 53
88 17z m-124 -216 c28 -51 27 -132 -3 -180 -36 -59 -95 -119 -117 -119 -12 0
-32 11 -45 25 -21 20 -25 34 -25 80 0 31 7 72 15 93 20 45 74 133 92 148 21
18 58 -4 83 -47z m635 -409 c11 -12 40 -36 65 -53 45 -30 150 -135 150 -150 0
-5 -4 -6 -9 -2 -5 3 -12 2 -15 -3 -3 -5 -24 -7 -48 -6 -49 2 -71 24 -90 87 -7
23 -29 57 -48 77 -37 36 -80 93 -80 105 0 9 51 -28 75 -55z"/>
<path d="M1090 2453 c0 -12 44 -52 112 -99 29 -21 85 -61 123 -89 108 -79 185
-128 192 -121 6 6 -83 96 -95 96 -4 0 -29 18 -56 40 -26 22 -69 50 -95 61 -25
12 -55 33 -65 47 -12 15 -14 22 -5 17 8 -5 1 4 -15 19 -29 27 -96 48 -96 29z"/>
<path d="M7172 2005 c-6 -14 -19 -25 -28 -25 -19 0 -54 -37 -54 -57 0 -7 -4
-13 -10 -13 -5 0 -14 -17 -21 -39 -7 -24 -17 -38 -27 -37 -10 1 -19 -12 -26
-34 -5 -19 -13 -37 -17 -40 -3 -3 -10 -19 -13 -36 -4 -17 -18 -46 -32 -65 -13
-18 -24 -39 -24 -46 0 -7 -4 -13 -8 -13 -10 0 -32 -60 -32 -87 0 -12 -3 -23
-7 -25 -15 -6 -73 -99 -73 -116 0 -9 -9 -23 -20 -30 -12 -7 -18 -16 -15 -21 2
-5 -2 -14 -10 -21 -8 -7 -12 -17 -9 -22 3 -5 -6 -23 -22 -39 -15 -16 -29 -39
-31 -51 -2 -12 -7 -25 -12 -28 -5 -3 -11 -15 -15 -27 -4 -13 -12 -23 -17 -23
-5 0 -9 -11 -9 -24 0 -14 -7 -26 -17 -28 -10 -3 -27 -27 -38 -57 -11 -28 -24
-51 -30 -52 -5 0 -32 -25 -60 -56 -78 -86 -168 -173 -181 -173 -6 0 -19 -9
-29 -20 -10 -11 -26 -22 -37 -26 -24 -7 -128 -107 -128 -122 0 -6 -12 -19 -27
-29 -34 -21 -63 -49 -63 -61 0 -5 -7 -15 -15 -22 -8 -7 -15 -27 -15 -44 0 -24
-8 -38 -30 -54 -16 -12 -32 -22 -35 -22 -4 0 -21 -16 -38 -35 -17 -19 -36 -35
-43 -35 -7 0 -14 -3 -16 -7 -4 -11 -67 -43 -82 -43 -8 0 -25 -9 -39 -20 -14
-11 -67 -36 -118 -56 -50 -19 -102 -42 -114 -50 -12 -8 -24 -12 -27 -9 -3 3
-23 -1 -44 -9 -22 -8 -52 -17 -68 -21 -16 -3 -39 -13 -50 -21 -18 -12 102 -14
942 -14 l962 0 0 1015 c0 558 -4 1015 -8 1015 -5 0 -14 -11 -20 -25z"/>
<path d="M3096 1762 c-2 -2 3 -17 12 -34 12 -26 13 -34 2 -52 -12 -19 -12 -20
4 -7 21 18 33 7 16 -14 -12 -14 -3 -27 63 -93 42 -43 77 -85 77 -94 0 -21 47
-78 64 -78 7 0 32 -13 54 -30 23 -16 44 -30 48 -30 3 0 29 -15 57 -34 29 -18
90 -56 137 -83 150 -88 193 -116 307 -200 111 -82 154 -126 168 -171 4 -13 10
-21 13 -17 3 3 17 -18 30 -47 l23 -53 24 28 c28 32 22 66 -13 82 -21 9 -22 17
-22 125 0 64 4 120 10 126 5 5 11 25 12 44 3 29 -1 36 -24 48 -16 7 -28 17
-28 22 0 10 -71 37 -114 44 -35 6 -72 29 -112 70 -16 17 -43 43 -60 57 -16 14
-42 41 -59 60 -38 45 -67 63 -130 84 -27 9 -77 31 -110 49 -36 20 -82 35 -116
39 -30 4 -71 14 -90 24 l-34 17 33 8 c17 5 32 12 32 16 0 16 -24 32 -47 32
-13 0 -40 9 -60 20 -21 11 -43 20 -49 20 -6 0 -17 7 -24 15 -11 14 -82 19 -94
7z"/>
<path d="M2460 1473 c0 -19 40 -70 101 -128 40 -38 86 -84 101 -101 l28 -31
-26 -29 c-43 -48 -94 -128 -94 -146 0 -10 39 -45 93 -85 52 -37 136 -107 188
-156 52 -48 110 -98 129 -111 19 -13 101 -72 182 -132 80 -60 172 -125 203
-144 76 -46 144 -114 167 -168 14 -32 20 -69 21 -143 l2 -99 43 0 c24 0 52 5
64 11 11 6 49 15 85 20 82 12 138 36 182 80 58 58 68 123 26 179 -31 42 -31
47 1 109 32 62 26 74 -49 91 -61 13 -167 61 -167 75 0 12 -61 55 -77 55 -16 0
-123 90 -123 104 0 12 -57 61 -105 91 -16 10 -55 44 -86 74 -81 80 -147 141
-154 141 -3 0 -20 16 -37 35 -17 20 -33 33 -36 30 -9 -9 -32 17 -32 37 0 23
-54 48 -105 48 -20 0 -65 14 -100 30 -35 17 -68 30 -74 30 -5 0 -11 3 -13 8
-8 18 -93 75 -133 89 -47 16 -137 94 -133 115 2 7 -13 15 -34 18 -21 4 -38 5
-38 3z m582 -529 c26 -16 38 -31 37 -47 0 -41 9 -79 25 -96 19 -21 20 -44 4
-73 -30 -51 -36 -53 -84 -27 -57 31 -234 167 -234 180 0 16 173 97 195 92 11
-3 37 -16 57 -29z"/>
</g>
</svg>
